<?xml version="1.0" encoding="UTF-8" standalone="no"?>
<svg
   xmlns:dc="http://purl.org/dc/elements/1.1/"
   xmlns:cc="http://creativecommons.org/ns#"
   xmlns:rdf="http://www.w3.org/1999/02/22-rdf-syntax-ns#"
   xmlns:svg="http://www.w3.org/2000/svg"
   xmlns="http://www.w3.org/2000/svg"
   xmlns:sodipodi="http://sodipodi.sourceforge.net/DTD/sodipodi-0.dtd"
   xmlns:inkscape="http://www.inkscape.org/namespaces/inkscape"
   viewBox="0 0 1140 360"
   enable-background="new 0 0 1140 360"
   version="1.1"
   id="svg1547"
   sodipodi:docname="banner4.svg"
   inkscape:version="0.92.1 r15371">
  <metadata
     id="metadata1553">
    <rdf:RDF>
      <cc:Work
         rdf:about="">
        <dc:format>image/svg+xml</dc:format>
        <dc:type
           rdf:resource="http://purl.org/dc/dcmitype/StillImage" />
      </cc:Work>
    </rdf:RDF>
  </metadata>
  <defs
     id="defs1551" />
  <sodipodi:namedview
     pagecolor="#ffffff"
     bordercolor="#666666"
     borderopacity="1"
     objecttolerance="10"
     gridtolerance="10"
     guidetolerance="10"
     inkscape:pageopacity="0"
     inkscape:pageshadow="2"
     inkscape:window-width="1600"
     inkscape:window-height="847"
     id="namedview1549"
     showgrid="false"
     inkscape:zoom="0.88326321"
     inkscape:cx="76.168343"
     inkscape:cy="88.494397"
     inkscape:window-x="-8"
     inkscape:window-y="-8"
     inkscape:window-maximized="1"
     inkscape:current-layer="svg1547" />
  <path
     fill="#1D4380"
     d="M0 0h1140v360h-1140v-360z"
     id="path1479" />
  <path
     fill="#59B4D9"
     d="M597.026 128.479c-6.343 4.851-13.817 7.213-21.238 7.213-10.53 0-20.943-4.727-27.824-13.727-11.757-15.35-8.855-37.302 6.522-49.064 6.342-4.88 13.824-7.209 21.235-7.209 10.53 0 20.945 4.727 27.824 13.735 11.76 15.345 8.83 37.302-6.519 49.052"
     id="path1483" />
  <path
     fill="#fff"
     d="M590.595 106.829c2.543 3.316 7.262 3.915 10.56 1.406.172-.132.305-.291.462-.433 3.373 2.376 5.716 3.945 7.036 4.844.391-1.012.661-1.984.938-2.999-1.395-1.038-3.281-2.49-6.007-4.699.895-2.352.612-5.097-1.022-7.241-2.337-3.025-6.478-3.793-9.712-1.928-3.565-3.198-7.482-6.864-11.613-10.968 12.834-6.902 21.951-5.891 21.951-5.891-1.522-1.941-3.228-3.641-5.049-5.177-5.412-.836-13.819-.742-23.425 4.367l-.003-.004h-.001c-3.201-3.351-6.459-6.943-9.778-10.799-1.588.508-3.139 1.137-4.638 1.886 2.449 4.008 5.744 8.05 9.457 11.993l.024.024c-3.096 2.165-6.544 5.059-9.724 8.423-.406.433-.797.868-1.179 1.304-1.9-.398-3.898-.281-5.765.395-3.17-6.84-2.915-12.335-2.414-15.168-1.376 1.442-2.662 2.959-3.77 4.575-.828 3.382-1.063 8.259 1.379 14.136-2.827 3.7-2.96 8.946-.007 12.817.246.321.51.619.783.903-1.29 4.393-1.867 8.63-2.044 12.268l.661 1.255c1.679 2.154 3.788 3.968 5.825 5.612-.252-3.851.02-9.53 2.4-15.924 1.643.125 3.313-.134 4.877-.793.896.788 1.834 1.585 2.836 2.396 3.435 2.719 6.861 4.835 10.201 6.502-.174 1.699.252 3.464 1.355 4.926 2.359 3.047 6.728 3.616 9.778 1.287.634-.486 1.136-1.073 1.552-1.703 5.446 1.213 10.204 1.427 13.731 1.427.541 0 3.048-3.411 4.485-5.526-2.148.449-8.518 1.325-17.223-1.176-.21-.977-.612-1.927-1.257-2.773-2.211-2.899-6.254-3.526-9.267-1.587-3.026-1.641-6.195-3.698-9.463-6.287-.66-.522-1.292-1.043-1.903-1.566 1.997-3.146 2.21-7.179.445-10.572.401-.4.794-.802 1.22-1.2 3.236-3.023 6.28-5.443 9.128-7.385l-.33-.326.335.318-.003.001c4.37 4.041 9.004 7.871 13.392 11.293-1.162 2.461-.98 5.459.786 7.767z"
     id="path1485" />
  <path
     fill="#55ADD3"
     d="M702.836 135.691c-1.725 0-3.349-.672-4.565-1.893l-28.544-28.543c-1.203-1.203-1.891-2.864-1.891-4.565 0-1.7.689-3.363 1.891-4.564l28.544-28.543c1.219-1.221 2.841-1.893 4.565-1.893 1.723 0 3.346.672 4.565 1.893l28.54 28.543c1.222 1.215 1.893 2.838 1.893 4.564s-.671 3.349-1.894 4.568l-28.538 28.54c-1.219 1.221-2.843 1.893-4.566 1.893"
     id="path1487" />
  <path
     fill="#fff"
     d="M721.894 95.221c-3.024 0-5.474 2.45-5.474 5.472 0 1.109.335 2.138.903 3l-10.841 10.841c-.288-.202-.598-.37-.918-.522v-27.658c1.634-.946 2.745-2.694 2.745-4.718 0-3.023-2.45-5.472-5.474-5.472-3.021 0-5.471 2.45-5.471 5.472 0 2.024 1.112 3.772 2.744 4.718v27.658c-.307.146-.608.302-.885.494l-10.854-10.854c.552-.854.879-1.866.879-2.958 0-3.023-2.45-5.472-5.471-5.472-3.024 0-5.474 2.45-5.474 5.472 0 3.023 2.45 5.472 5.474 5.472.627 0 1.221-.127 1.784-.322l11.41 11.41c-.328.767-.51 1.61-.51 2.496 0 3.518 2.853 6.371 6.371 6.371 3.52 0 6.371-2.853 6.371-6.371 0-.869-.176-1.697-.491-2.451l11.442-11.441c.549.185 1.126.308 1.737.308 3.021 0 5.471-2.45 5.471-5.472 0-3.023-2.448-5.473-5.468-5.473z"
     id="path1489" />
  <rect
     x="711.244"
     y="77.211"
     transform="matrix(.707 -.707 .707 .707 144.067 531.108)"
     opacity=".5"
     fill="#fff"
     enable-background="new"
     width="3.532"
     height="28.946"
     id="rect1491" />
  <rect
     x="678.208"
     y="89.936"
     transform="matrix(.707 -.707 .707 .707 138.038 516.659)"
     opacity=".5"
     fill="#fff"
     enable-background="new"
     width="28.947"
     height="3.533"
     id="rect1493" />
  <path
     fill="#B8D432"
     d="M706.566 119.75c0 2.094-1.7 3.793-3.794 3.793-2.096 0-3.793-1.698-3.793-3.793s1.697-3.793 3.793-3.793c2.093 0 3.794 1.699 3.794 3.793"
     id="path1495" />
  <path
     fill="#B8D432"
     d="M705.878 81.636c0 1.681-1.362 3.044-3.044 3.044-1.681 0-3.044-1.362-3.044-3.044s1.362-3.044 3.044-3.044 3.044 1.362 3.044 3.044"
     id="path1497" />
  <path
     fill="#B8D432"
     d="M686.823 100.692c0 1.681-1.365 3.044-3.044 3.044-1.681 0-3.044-1.362-3.044-3.044s1.362-3.044 3.044-3.044c1.679.001 3.044 1.363 3.044 3.044"
     id="path1499" />
  <path
     fill="#B8D432"
     d="M724.937 100.692c0 1.681-1.365 3.044-3.045 3.044s-3.044-1.362-3.044-3.044 1.364-3.044 3.044-3.044c1.68.001 3.045 1.363 3.045 3.044"
     id="path1501" />
  <path
     opacity=".1"
     fill="#69c"
     enable-background="new"
     d="M707.401 67.584c-1.219-1.221-2.841-1.893-4.565-1.893-1.723 0-3.345.672-4.564 1.893l-28.544 28.543c-1.204 1.201-1.893 2.864-1.893 4.564 0 1.701.689 3.364 1.893 4.565l16.16 16.161 30.4-44.948-8.887-8.885z"
     id="path1503" />
  <path
     fill="#3999C6"
     d="M803.512 75.254v50.873c0 5.282 11.823 9.564 26.405 9.564v-60.437h-26.405z"
     id="path1505" />
  <path
     fill="#59B4D9"
     d="M829.555 135.69h.362c14.582 0 26.405-4.28 26.405-9.563v-50.873h-26.767v60.436z"
     id="path1507" />
  <path
     fill="#fff"
     d="M856.322 75.254c0 5.282-11.823 9.563-26.405 9.563s-26.405-4.281-26.405-9.563 11.823-9.563 26.405-9.563 26.405 4.282 26.405 9.563"
     id="path1509" />
  <path
     fill="#7FBA00"
     d="M850.924 74.703c0 3.487-9.405 6.31-21.006 6.31s-21.008-2.823-21.008-6.31c0-3.485 9.406-6.31 21.008-6.31 11.601 0 21.006 2.825 21.006 6.31"
     id="path1511" />
  <path
     fill="#B8D432"
     d="M846.523 78.559c2.75-1.066 4.402-2.402 4.402-3.853 0-3.487-9.405-6.311-21.008-6.311-11.601 0-21.007 2.825-21.007 6.311 0 1.451 1.653 2.787 4.402 3.853 3.84-1.491 9.842-2.453 16.604-2.453 6.765.001 12.764.963 16.607 2.453"
     id="path1513" />
  <path
     fill="#fff"
     d="M846.983 116.504c-1.413 1.178-3.328 1.769-5.815 1.769h-8.298v-21.643h7.871c2.478 0 4.377.452 5.683 1.389 1.223.879 1.836 2.109 1.836 3.68 0 1.252-.447 2.317-1.358 3.254-.776.775-1.709 1.31-2.858 1.624v.051c1.543.19 2.802.778 3.74 1.765.878.937 1.33 2.086 1.33 3.415.005 1.979-.716 3.529-2.131 4.696m-20.223-1.275c-2.077 2.031-4.88 3.044-8.378 3.044h-7.661v-21.643h7.661c7.685 0 11.528 3.498 11.528 10.538 0 3.365-1.039 6.059-3.15 8.061"
     id="path1515" />
  <path
     fill="#3999C6"
     d="M817.982 100.58h-2.401v13.741h2.429c2.134 0 3.788-.668 5.012-1.948 1.172-1.281 1.765-2.988 1.765-5.148 0-2.027-.593-3.625-1.738-4.808-1.201-1.223-2.882-1.837-5.067-1.837"
     id="path1517" />
  <path
     fill="#59B4D9"
     d="M842.233 104.613c.586-.51.879-1.178.879-2.006 0-1.605-1.172-2.403-3.55-2.403h-1.834v5.128h2.16c.987 0 1.787-.247 2.345-.719"
     id="path1519" />
  <path
     fill="#59B4D9"
     d="M843.035 109.703c-.642-.478-1.516-.747-2.644-.747h-2.667v5.708h2.641c1.123 0 2.027-.266 2.695-.8.613-.535.931-1.224.931-2.134.006-.854-.314-1.548-.956-2.027"
     id="path1521" />
  <path
     fill="#A0A1A2"
     d="M922 127.851c0 1.4.98 2.66 2.66 2.66h64.68c1.4 0 2.66-.98 2.66-2.66v-46.34h-70v46.34z"
     id="path1523" />
  <path
     fill="#7A7A7A"
     d="M989.34 70.871h-64.68c-1.68 0-2.66 1.26-2.66 2.66v7.98h70v-7.98c0-1.4-.98-2.66-2.66-2.66"
     id="path1525" />
  <rect
     x="948.32"
     y="86.131"
     fill="#fff"
     width="17.64"
     height="10.64"
     id="rect1527" />
  <rect
     x="948.32"
     y="100.551"
     fill="#FCD116"
     width="17.64"
     height="10.64"
     id="rect1529" />
  <rect
     x="969.32"
     y="100.551"
     fill="#FCD116"
     width="17.64"
     height="10.64"
     id="rect1531" />
  <rect
     x="969.32"
     y="86.131"
     fill="#fff"
     width="17.64"
     height="10.64"
     id="rect1533" />
  <rect
     x="927.32"
     y="86.131"
     fill="#fff"
     width="17.64"
     height="10.64"
     id="rect1535" />
  <rect
     x="927.32"
     y="100.551"
     fill="#fff"
     width="17.64"
     height="10.64"
     id="rect1537" />
  <rect
     x="927.32"
     y="114.831"
     fill="#FCD116"
     width="17.64"
     height="10.64"
     id="rect1539" />
  <rect
     x="948.32"
     y="114.831"
     fill="#FCD116"
     width="17.64"
     height="10.64"
     id="rect1541" />
  <rect
     x="969.32"
     y="114.831"
     fill="#FCD116"
     width="17.64"
     height="10.64"
     id="rect1543" />
  <path
     opacity=".2"
     fill="#fff"
     enable-background="new"
     d="M924.66 70.871c-1.26 0-2.66 1.26-2.66 2.66v54.32c0 1.4 1.4 2.66 2.66 2.66h2.94l55.44-59.64h-58.38z"
     id="path1545" />
  <text
     xml:space="preserve"
     style="font-style:normal;font-weight:normal;font-size:42.66666794px;line-height:1.25;font-family:sans-serif;letter-spacing:0px;word-spacing:0px;fill:#000000;fill-opacity:1;stroke:none"
     x="117.74519"
     y="119.98095"
     id="text1557"><tspan
       sodipodi:role="line"
       id="tspan1555"
       x="117.74519"
       y="119.98095"
       style="fill:#ffffff">Cyber-Soft</tspan></text>
  <path
     style="fill:#ffffff;stroke:#ffffba;stroke-width:1px;stroke-linecap:butt;stroke-linejoin:miter;stroke-opacity:1"
     d="m 442.67665,62.240512 c 0,82.648068 0,82.648068 0,82.648068 h 1.13217"
     id="path1559"
     inkscape:connector-curvature="0" />
</svg>
